<mxfile host="app.diagrams.net" agent="Mozilla/5.0 (Windows NT 10.0; Win64; x64) AppleWebKit/537.36 (KHTML, like Gecko) Chrome/117.0.0.0 Safari/537.36" version="28.0.9">
  <diagram id="NRdxcHkZcPFNl6S1BZ1k" name="PÃ¡gina-1">
    <mxGraphModel dx="772" dy="494" grid="1" gridSize="10" guides="1" tooltips="1" connect="1" arrows="1" fold="1" page="1" pageScale="1" pageWidth="827" pageHeight="1169" background="none" math="0" shadow="0">
      <root>
        <mxCell id="0" />
        <mxCell id="1" parent="0" />
        <mxCell id="arvUL8lsrQ8Z9jREooVD-17" value="" style="rounded=1;whiteSpace=wrap;html=1;fontFamily=Times New Roman;fontSize=28;strokeWidth=2;rotation=-35;fillColor=#757575;gradientColor=#ffffff;gradientDirection=radial;strokeColor=#8F8F8F;shadow=1;glass=0;" parent="1" vertex="1">
          <mxGeometry x="419.5" y="423" width="200" height="20" as="geometry" />
        </mxCell>
        <mxCell id="EwHTVLRrVT_rf0cmMfTu-15" style="edgeStyle=orthogonalEdgeStyle;rounded=0;orthogonalLoop=1;jettySize=auto;html=1;endArrow=oval;endFill=1;endSize=10;strokeWidth=3;exitX=0.793;exitY=0.786;exitDx=0;exitDy=0;exitPerimeter=0;" parent="1" edge="1">
          <mxGeometry relative="1" as="geometry">
            <mxPoint x="400" y="642" as="targetPoint" />
            <mxPoint x="535.9800000000002" y="695.5535" as="sourcePoint" />
            <Array as="points">
              <mxPoint x="537" y="696" />
              <mxPoint x="537" y="640" />
              <mxPoint x="400" y="640" />
            </Array>
          </mxGeometry>
        </mxCell>
        <mxCell id="EwHTVLRrVT_rf0cmMfTu-11" value="" style="pointerEvents=1;verticalLabelPosition=bottom;shadow=0;dashed=0;align=center;html=1;verticalAlign=top;shape=mxgraph.electrical.inductors.inductor_5;strokeWidth=3;rotation=-90;" parent="1" vertex="1">
          <mxGeometry x="324" y="710" width="140" height="30" as="geometry" />
        </mxCell>
        <mxCell id="EwHTVLRrVT_rf0cmMfTu-35" value="" style="endArrow=none;html=1;strokeWidth=3;exitX=1;exitY=0.5;exitDx=0;exitDy=0;entryX=1;entryY=0.645;entryDx=0;entryDy=0;entryPerimeter=0;" parent="1" source="EwHTVLRrVT_rf0cmMfTu-27" target="EwHTVLRrVT_rf0cmMfTu-11" edge="1">
          <mxGeometry width="50" height="50" relative="1" as="geometry">
            <mxPoint x="394" y="590" as="sourcePoint" />
            <mxPoint x="464" y="590" as="targetPoint" />
          </mxGeometry>
        </mxCell>
        <mxCell id="EwHTVLRrVT_rf0cmMfTu-46" value="" style="endArrow=none;html=1;strokeWidth=3;rounded=0;" parent="1" edge="1">
          <mxGeometry width="50" height="50" relative="1" as="geometry">
            <mxPoint x="189" y="710" as="sourcePoint" />
            <mxPoint x="399" y="802" as="targetPoint" />
            <Array as="points">
              <mxPoint x="189" y="802" />
            </Array>
          </mxGeometry>
        </mxCell>
        <mxCell id="EwHTVLRrVT_rf0cmMfTu-60" value="" style="html=1;shadow=0;dashed=0;align=center;verticalAlign=middle;shape=mxgraph.arrows2.uTurnArrow;dy=3.12;arrowHead=24.1;dx2=14.49;strokeColor=#000000;strokeWidth=2;fillColor=#FFFFFF;rotation=115;" parent="1" vertex="1">
          <mxGeometry x="484" y="417.5" width="14" height="66.5" as="geometry" />
        </mxCell>
        <mxCell id="EwHTVLRrVT_rf0cmMfTu-62" value="&lt;font style=&quot;font-size: 24px&quot; face=&quot;Verdana&quot;&gt;E&lt;/font&gt;" style="text;html=1;strokeColor=none;fillColor=none;align=center;verticalAlign=middle;whiteSpace=wrap;rounded=0;dashed=1;" parent="1" vertex="1">
          <mxGeometry x="342.5" y="770" width="40" height="20" as="geometry" />
        </mxCell>
        <mxCell id="EwHTVLRrVT_rf0cmMfTu-63" value="&lt;font style=&quot;font-size: 24px&quot; face=&quot;Verdana&quot;&gt;F&lt;/font&gt;" style="text;html=1;strokeColor=none;fillColor=none;align=center;verticalAlign=middle;whiteSpace=wrap;rounded=0;dashed=1;" parent="1" vertex="1">
          <mxGeometry x="342.5" y="643" width="40" height="20" as="geometry" />
        </mxCell>
        <mxCell id="EwHTVLRrVT_rf0cmMfTu-65" value="&lt;font style=&quot;font-size: 28px;&quot;&gt;&lt;i style=&quot;font-size: 28px;&quot;&gt;R&lt;sub style=&quot;font-size: 28px;&quot;&gt;c&lt;/sub&gt;&lt;/i&gt;&lt;/font&gt;" style="text;html=1;strokeColor=none;fillColor=none;align=center;verticalAlign=middle;whiteSpace=wrap;rounded=0;dashed=1;fontFamily=Times New Roman;fontSize=28;" parent="1" vertex="1">
          <mxGeometry x="128" y="440.5" width="40" height="20" as="geometry" />
        </mxCell>
        <mxCell id="EwHTVLRrVT_rf0cmMfTu-67" value="&lt;font face=&quot;Times New Roman&quot; size=&quot;1&quot;&gt;&lt;i style=&quot;font-size: 28px&quot;&gt;n&lt;/i&gt;&lt;/font&gt;" style="text;html=1;strokeColor=none;fillColor=none;align=center;verticalAlign=middle;whiteSpace=wrap;rounded=0;dashed=1;" parent="1" vertex="1">
          <mxGeometry x="507" y="479" width="40" height="20" as="geometry" />
        </mxCell>
        <mxCell id="EwHTVLRrVT_rf0cmMfTu-73" value="" style="endArrow=none;html=1;strokeWidth=3;" parent="1" edge="1">
          <mxGeometry width="50" height="50" relative="1" as="geometry">
            <mxPoint x="190" y="330" as="sourcePoint" />
            <mxPoint x="670" y="330" as="targetPoint" />
          </mxGeometry>
        </mxCell>
        <mxCell id="EwHTVLRrVT_rf0cmMfTu-74" value="" style="endArrow=oval;html=1;strokeWidth=3;endFill=1;endSize=10;" parent="1" edge="1">
          <mxGeometry width="50" height="50" relative="1" as="geometry">
            <mxPoint x="401.5" y="440" as="sourcePoint" />
            <mxPoint x="401.5" y="330" as="targetPoint" />
          </mxGeometry>
        </mxCell>
        <mxCell id="EwHTVLRrVT_rf0cmMfTu-27" value="" style="rounded=0;whiteSpace=wrap;html=1;strokeColor=#000000;strokeWidth=3;fillColor=#000000;rotation=90;" parent="1" vertex="1">
          <mxGeometry x="334" y="481" width="130" height="40" as="geometry" />
        </mxCell>
        <mxCell id="EwHTVLRrVT_rf0cmMfTu-28" value="" style="ellipse;whiteSpace=wrap;html=1;aspect=fixed;strokeColor=#000000;strokeWidth=3;fillColor=#FFFFFF;" parent="1" vertex="1">
          <mxGeometry x="342.5" y="445" width="114" height="114" as="geometry" />
        </mxCell>
        <mxCell id="EwHTVLRrVT_rf0cmMfTu-29" value="&lt;font style=&quot;font-size: 45px&quot;&gt;G&lt;/font&gt;" style="text;html=1;strokeColor=none;fillColor=none;align=center;verticalAlign=middle;whiteSpace=wrap;rounded=0;" parent="1" vertex="1">
          <mxGeometry x="379.5" y="481" width="40" height="20" as="geometry" />
        </mxCell>
        <mxCell id="EwHTVLRrVT_rf0cmMfTu-32" value="" style="group" parent="1" vertex="1" connectable="0">
          <mxGeometry x="373.5" y="521" width="52" height="10" as="geometry" />
        </mxCell>
        <mxCell id="EwHTVLRrVT_rf0cmMfTu-30" value="" style="endArrow=none;dashed=1;html=1;strokeWidth=3;" parent="EwHTVLRrVT_rf0cmMfTu-32" edge="1">
          <mxGeometry width="50" height="50" relative="1" as="geometry">
            <mxPoint x="2" y="10" as="sourcePoint" />
            <mxPoint x="52" y="10" as="targetPoint" />
          </mxGeometry>
        </mxCell>
        <mxCell id="EwHTVLRrVT_rf0cmMfTu-31" value="" style="endArrow=none;html=1;strokeWidth=3;" parent="EwHTVLRrVT_rf0cmMfTu-32" edge="1">
          <mxGeometry width="50" height="50" relative="1" as="geometry">
            <mxPoint as="sourcePoint" />
            <mxPoint x="50" as="targetPoint" />
          </mxGeometry>
        </mxCell>
        <mxCell id="EwHTVLRrVT_rf0cmMfTu-58" value="&lt;font style=&quot;font-size: 24px&quot; face=&quot;Verdana&quot;&gt;GA (+)&lt;/font&gt;" style="text;html=1;strokeColor=none;fillColor=none;align=center;verticalAlign=middle;whiteSpace=wrap;rounded=0;dashed=1;" parent="1" vertex="1">
          <mxGeometry x="333.5" y="400" width="40" height="20" as="geometry" />
        </mxCell>
        <mxCell id="EwHTVLRrVT_rf0cmMfTu-59" value="&lt;font style=&quot;font-size: 24px&quot; face=&quot;Verdana&quot;&gt;(-)&lt;br&gt;&lt;/font&gt;&lt;span style=&quot;font-family: &amp;#34;verdana&amp;#34; ; font-size: 24px&quot;&gt;HB&amp;nbsp;&lt;/span&gt;" style="text;html=1;strokeColor=none;fillColor=none;align=center;verticalAlign=middle;whiteSpace=wrap;rounded=0;dashed=1;" parent="1" vertex="1">
          <mxGeometry x="324" y="563" width="50" height="45.5" as="geometry" />
        </mxCell>
        <mxCell id="arvUL8lsrQ8Z9jREooVD-1" value="" style="endArrow=oval;html=1;strokeWidth=3;endFill=1;endSize=10;rounded=0;" parent="1" edge="1">
          <mxGeometry width="50" height="50" relative="1" as="geometry">
            <mxPoint x="700" y="802" as="sourcePoint" />
            <mxPoint x="540" y="802" as="targetPoint" />
            <Array as="points" />
          </mxGeometry>
        </mxCell>
        <mxCell id="arvUL8lsrQ8Z9jREooVD-2" style="edgeStyle=orthogonalEdgeStyle;rounded=0;orthogonalLoop=1;jettySize=auto;html=1;endArrow=oval;endFill=1;endSize=10;strokeWidth=3;exitX=0;exitY=0.645;exitDx=0;exitDy=0;exitPerimeter=0;" parent="1" source="EwHTVLRrVT_rf0cmMfTu-11" edge="1">
          <mxGeometry relative="1" as="geometry">
            <mxPoint x="398" y="802" as="targetPoint" />
            <mxPoint x="397.8399999999999" y="787.8599999999999" as="sourcePoint" />
          </mxGeometry>
        </mxCell>
        <mxCell id="arvUL8lsrQ8Z9jREooVD-3" value="" style="pointerEvents=1;verticalLabelPosition=bottom;shadow=0;dashed=0;align=center;html=1;verticalAlign=top;shape=mxgraph.electrical.inductors.inductor_5;strokeWidth=3;direction=south;" parent="1" vertex="1">
          <mxGeometry x="178" y="583" width="30" height="140" as="geometry" />
        </mxCell>
        <mxCell id="arvUL8lsrQ8Z9jREooVD-5" style="edgeStyle=orthogonalEdgeStyle;rounded=0;orthogonalLoop=1;jettySize=auto;html=1;endArrow=oval;endFill=1;endSize=10;strokeWidth=3;entryX=1;entryY=0.645;entryDx=0;entryDy=0;entryPerimeter=0;" parent="1" target="arvUL8lsrQ8Z9jREooVD-3" edge="1">
          <mxGeometry relative="1" as="geometry">
            <mxPoint x="410" y="652" as="targetPoint" />
            <mxPoint x="189" y="790" as="sourcePoint" />
          </mxGeometry>
        </mxCell>
        <mxCell id="arvUL8lsrQ8Z9jREooVD-6" value="" style="pointerEvents=1;verticalLabelPosition=bottom;shadow=0;dashed=0;align=center;html=1;verticalAlign=top;shape=mxgraph.electrical.resistors.variable_resistor_1;strokeWidth=3;rotation=-90;flipV=1;" parent="1" vertex="1">
          <mxGeometry x="117" y="435.5" width="143" height="69" as="geometry" />
        </mxCell>
        <mxCell id="arvUL8lsrQ8Z9jREooVD-10" value="" style="endArrow=none;html=1;rounded=0;entryX=0.722;entryY=0.067;entryDx=0;entryDy=0;entryPerimeter=0;strokeWidth=3;" parent="1" edge="1">
          <mxGeometry width="50" height="50" relative="1" as="geometry">
            <mxPoint x="400" y="802" as="sourcePoint" />
            <mxPoint x="496.4350000000002" y="702.6890000000001" as="targetPoint" />
            <Array as="points">
              <mxPoint x="450" y="802" />
              <mxPoint x="540" y="802" />
              <mxPoint x="540" y="752" />
            </Array>
          </mxGeometry>
        </mxCell>
        <mxCell id="arvUL8lsrQ8Z9jREooVD-11" value="&lt;font style=&quot;font-size: 24px&quot; face=&quot;Verdana&quot;&gt;D&lt;/font&gt;" style="text;html=1;strokeColor=none;fillColor=none;align=center;verticalAlign=middle;whiteSpace=wrap;rounded=0;dashed=1;" parent="1" vertex="1">
          <mxGeometry x="136" y="701" width="40" height="20" as="geometry" />
        </mxCell>
        <mxCell id="arvUL8lsrQ8Z9jREooVD-12" value="&lt;font style=&quot;font-size: 24px&quot; face=&quot;Verdana&quot;&gt;C&lt;/font&gt;" style="text;html=1;strokeColor=none;fillColor=none;align=center;verticalAlign=middle;whiteSpace=wrap;rounded=0;dashed=1;" parent="1" vertex="1">
          <mxGeometry x="133" y="586" width="40" height="20" as="geometry" />
        </mxCell>
        <mxCell id="arvUL8lsrQ8Z9jREooVD-14" value="" style="pointerEvents=1;verticalLabelPosition=bottom;shadow=0;dashed=0;align=center;html=1;verticalAlign=top;shape=mxgraph.electrical.resistors.variable_resistor_1;strokeWidth=3;rotation=-90;flipV=1;" parent="1" vertex="1">
          <mxGeometry x="611.5" y="482.5" width="180" height="109" as="geometry" />
        </mxCell>
        <mxCell id="arvUL8lsrQ8Z9jREooVD-19" value="" style="endArrow=none;html=1;strokeWidth=3;entryX=1;entryY=0.5;entryDx=0;entryDy=0;entryPerimeter=0;" parent="1" target="arvUL8lsrQ8Z9jREooVD-6" edge="1">
          <mxGeometry width="50" height="50" relative="1" as="geometry">
            <mxPoint x="189" y="330" as="sourcePoint" />
            <mxPoint x="188.5" y="398.5" as="targetPoint" />
          </mxGeometry>
        </mxCell>
        <mxCell id="arvUL8lsrQ8Z9jREooVD-21" value="" style="endArrow=none;html=1;strokeWidth=3;entryX=0;entryY=0.645;entryDx=0;entryDy=0;entryPerimeter=0;exitX=0;exitY=0.5;exitDx=0;exitDy=0;exitPerimeter=0;" parent="1" source="arvUL8lsrQ8Z9jREooVD-6" target="arvUL8lsrQ8Z9jREooVD-3" edge="1">
          <mxGeometry width="50" height="50" relative="1" as="geometry">
            <mxPoint x="240.5" y="531" as="sourcePoint" />
            <mxPoint x="240" y="599.5" as="targetPoint" />
          </mxGeometry>
        </mxCell>
        <mxCell id="arvUL8lsrQ8Z9jREooVD-23" value="" style="endArrow=blockThin;html=1;rounded=0;fontFamily=Times New Roman;fontSize=28;strokeWidth=3;endFill=1;strokeColor=#0000FF;" parent="1" edge="1">
          <mxGeometry width="50" height="50" relative="1" as="geometry">
            <mxPoint x="325" y="315" as="sourcePoint" />
            <mxPoint x="265" y="315" as="targetPoint" />
          </mxGeometry>
        </mxCell>
        <mxCell id="arvUL8lsrQ8Z9jREooVD-29" value="&lt;i&gt;I&lt;sub&gt;d&lt;/sub&gt;&lt;/i&gt;" style="edgeLabel;html=1;align=center;verticalAlign=middle;resizable=0;points=[];fontSize=28;fontFamily=Times New Roman;fontColor=#0000FF;" parent="arvUL8lsrQ8Z9jREooVD-23" vertex="1" connectable="0">
          <mxGeometry x="0.4284" y="-2" relative="1" as="geometry">
            <mxPoint x="18" y="-20" as="offset" />
          </mxGeometry>
        </mxCell>
        <mxCell id="arvUL8lsrQ8Z9jREooVD-24" value="" style="endArrow=blockThin;html=1;rounded=0;fontFamily=Times New Roman;fontSize=28;strokeWidth=3;endFill=1;strokeColor=#0000FF;" parent="1" edge="1">
          <mxGeometry width="50" height="50" relative="1" as="geometry">
            <mxPoint x="414" y="400" as="sourcePoint" />
            <mxPoint x="414" y="344" as="targetPoint" />
          </mxGeometry>
        </mxCell>
        <mxCell id="arvUL8lsrQ8Z9jREooVD-27" value="&lt;font color=&quot;#0000ff&quot;&gt;&lt;i&gt;I&lt;sub&gt;i&lt;/sub&gt;&lt;/i&gt;&lt;/font&gt;" style="edgeLabel;html=1;align=center;verticalAlign=middle;resizable=0;points=[];fontSize=28;fontFamily=Times New Roman;" parent="arvUL8lsrQ8Z9jREooVD-24" vertex="1" connectable="0">
          <mxGeometry x="-0.3296" relative="1" as="geometry">
            <mxPoint x="16" y="-1" as="offset" />
          </mxGeometry>
        </mxCell>
        <mxCell id="arvUL8lsrQ8Z9jREooVD-22" value="" style="endArrow=blockThin;html=1;rounded=0;fontFamily=Times New Roman;fontSize=28;strokeWidth=3;endFill=1;strokeColor=#0000FF;" parent="1" edge="1">
          <mxGeometry width="50" height="50" relative="1" as="geometry">
            <mxPoint x="517" y="315" as="sourcePoint" />
            <mxPoint x="580" y="315" as="targetPoint" />
          </mxGeometry>
        </mxCell>
        <mxCell id="arvUL8lsrQ8Z9jREooVD-28" value="&lt;i&gt;I&lt;/i&gt;" style="edgeLabel;html=1;align=center;verticalAlign=middle;resizable=0;points=[];fontSize=28;fontFamily=Times New Roman;fontColor=#0000FF;" parent="arvUL8lsrQ8Z9jREooVD-22" vertex="1" connectable="0">
          <mxGeometry x="0.2582" y="3" relative="1" as="geometry">
            <mxPoint x="-6" y="-18" as="offset" />
          </mxGeometry>
        </mxCell>
        <mxCell id="arvUL8lsrQ8Z9jREooVD-30" style="edgeStyle=orthogonalEdgeStyle;rounded=0;orthogonalLoop=1;jettySize=auto;html=1;endArrow=oval;endFill=1;endSize=10;strokeWidth=3;exitX=1;exitY=0.5;exitDx=0;exitDy=0;exitPerimeter=0;" parent="1" source="arvUL8lsrQ8Z9jREooVD-14" edge="1">
          <mxGeometry relative="1" as="geometry">
            <mxPoint x="640" y="330" as="targetPoint" />
            <mxPoint x="799.94" y="419.94" as="sourcePoint" />
            <Array as="points">
              <mxPoint x="702" y="330" />
            </Array>
          </mxGeometry>
        </mxCell>
        <mxCell id="arvUL8lsrQ8Z9jREooVD-32" value="" style="endArrow=oval;html=1;strokeWidth=3;endFill=1;endSize=10;rounded=0;exitX=0;exitY=0.5;exitDx=0;exitDy=0;exitPerimeter=0;" parent="1" source="arvUL8lsrQ8Z9jREooVD-14" edge="1">
          <mxGeometry width="50" height="50" relative="1" as="geometry">
            <mxPoint x="802" y="802" as="sourcePoint" />
            <mxPoint x="640" y="802" as="targetPoint" />
            <Array as="points">
              <mxPoint x="700" y="802" />
            </Array>
          </mxGeometry>
        </mxCell>
        <mxCell id="arvUL8lsrQ8Z9jREooVD-34" value="" style="curved=1;endArrow=classic;html=1;rounded=0;fontFamily=Times New Roman;fontSize=28;fontColor=#0000FF;strokeColor=#0000FF;strokeWidth=3;" parent="1" edge="1">
          <mxGeometry width="50" height="50" relative="1" as="geometry">
            <mxPoint x="639.5" y="356" as="sourcePoint" />
            <mxPoint x="639.5" y="776" as="targetPoint" />
            <Array as="points">
              <mxPoint x="580" y="560" />
            </Array>
          </mxGeometry>
        </mxCell>
        <mxCell id="arvUL8lsrQ8Z9jREooVD-35" value="&lt;i&gt;U&lt;/i&gt;" style="edgeLabel;html=1;align=center;verticalAlign=middle;resizable=0;points=[];fontSize=28;fontFamily=Times New Roman;fontColor=#0000FF;" parent="arvUL8lsrQ8Z9jREooVD-34" vertex="1" connectable="0">
          <mxGeometry x="-0.12" y="23" relative="1" as="geometry">
            <mxPoint as="offset" />
          </mxGeometry>
        </mxCell>
        <mxCell id="arvUL8lsrQ8Z9jREooVD-36" value="&lt;font style=&quot;font-size: 28px&quot; face=&quot;Times New Roman&quot;&gt;&lt;i&gt;R&lt;sub&gt;carga&lt;/sub&gt;&lt;/i&gt;&lt;/font&gt;" style="text;html=1;strokeColor=none;fillColor=none;align=center;verticalAlign=middle;whiteSpace=wrap;rounded=0;dashed=1;" parent="1" vertex="1">
          <mxGeometry x="730" y="543" width="70" height="20" as="geometry" />
        </mxCell>
        <mxCell id="arvUL8lsrQ8Z9jREooVD-37" style="edgeStyle=orthogonalEdgeStyle;rounded=0;orthogonalLoop=1;jettySize=auto;html=1;endArrow=oval;endFill=1;endSize=10;strokeWidth=3;exitX=0;exitY=0.5;exitDx=0;exitDy=0;exitPerimeter=0;" parent="1" source="arvUL8lsrQ8Z9jREooVD-6" edge="1">
          <mxGeometry relative="1" as="geometry">
            <mxPoint x="189" y="580" as="targetPoint" />
            <mxPoint x="190" y="550" as="sourcePoint" />
            <Array as="points">
              <mxPoint x="189" y="542" />
            </Array>
          </mxGeometry>
        </mxCell>
        <mxCell id="arvUL8lsrQ8Z9jREooVD-38" value="" style="shape=flexArrow;endArrow=classic;html=1;rounded=0;fontFamily=Times New Roman;fontSize=28;fontColor=#4D4D4D;strokeColor=#4D4D4D;strokeWidth=2;endWidth=8.275862068965518;endSize=4.5793103448275865;" parent="1" edge="1">
          <mxGeometry width="50" height="50" relative="1" as="geometry">
            <mxPoint x="562" y="370" as="sourcePoint" />
            <mxPoint x="492" y="420" as="targetPoint" />
          </mxGeometry>
        </mxCell>
        <mxCell id="arvUL8lsrQ8Z9jREooVD-40" value="&lt;i&gt;P&lt;sub&gt;mec&lt;/sub&gt;&lt;/i&gt;" style="text;html=1;strokeColor=none;fillColor=none;align=center;verticalAlign=middle;whiteSpace=wrap;rounded=0;shadow=0;glass=0;sketch=1;fontFamily=Times New Roman;fontSize=28;fontColor=#4D4D4D;rotation=-35;" parent="1" vertex="1">
          <mxGeometry x="491" y="358" width="60" height="30" as="geometry" />
        </mxCell>
      </root>
    </mxGraphModel>
  </diagram>
</mxfile>
